<?xml version="1.0" standalone="no"?>
<!DOCTYPE svg PUBLIC "-//W3C//DTD SVG 20010904//EN"
 "http://www.w3.org/TR/2001/REC-SVG-20010904/DTD/svg10.dtd">
<svg version="1.0" xmlns="http://www.w3.org/2000/svg"
 width="256.000000pt" height="256.000000pt" viewBox="0 0 256.000000 256.000000"
 preserveAspectRatio="xMidYMid meet">
<metadata>
Created by potrace 1.14, written by Peter Selinger 2001-2017
</metadata>
<g transform="translate(0.000000,256.000000) scale(0.100000,-0.100000)"
fill="#000000" stroke="none">
<path d="M178 1905 c-10 -13 -18 -40 -18 -60 0 -20 -5 -45 -10 -55 -7 -13 -7
-21 0 -25 5 -3 10 -27 10 -52 0 -40 5 -50 48 -94 l47 -49 72 0 c39 0 75 -4 78
-10 3 -5 23 -10 44 -10 20 0 46 -7 57 -15 10 -8 35 -15 55 -15 23 0 39 -6 43
-15 3 -9 18 -15 40 -15 19 0 38 -4 41 -10 3 -5 14 -10 24 -10 9 0 37 -20 61
-45 24 -24 59 -52 77 -60 19 -9 33 -23 33 -34 0 -10 11 -28 25 -41 14 -13 25
-32 25 -42 0 -10 7 -21 15 -24 12 -5 15 -25 15 -90 0 -89 9 -104 35 -54 20 39
20 177 0 204 -8 11 -15 28 -15 38 0 10 -4 18 -10 18 -5 0 -10 5 -10 11 0 30
-104 138 -132 139 -10 0 -18 7 -18 15 0 8 -7 15 -15 15 -8 0 -15 5 -15 10 0 6
-9 10 -21 10 -11 0 -27 7 -35 15 -9 8 -24 15 -34 15 -10 0 -22 5 -25 10 -3 6
-17 10 -29 10 -13 0 -37 7 -52 15 -16 8 -46 15 -66 15 -20 0 -40 5 -43 10 -3
6 -31 10 -60 10 -47 0 -59 4 -85 30 -18 17 -30 40 -30 54 0 23 3 25 30 20 22
-5 31 -2 36 10 6 14 59 16 574 16 496 0 569 -2 574 -15 7 -18 56 -20 57 -2 5
58 -12 87 -58 94 -15 3 -282 8 -593 12 l-565 7 613 2 612 2 0 -32 c1 -47 20
-68 62 -68 20 0 41 -7 48 -15 11 -13 56 -15 289 -15 352 -1 348 -19 -7 -27
-138 -3 -253 -10 -259 -16 -8 -6 -13 -36 -13 -83 0 -40 -4 -76 -10 -79 -5 -3
-10 -24 -10 -46 0 -36 2 -39 29 -39 29 0 41 14 41 51 0 10 5 19 10 19 6 0 10
7 10 15 0 8 7 15 15 15 8 0 15 5 15 10 0 6 28 10 64 10 36 0 68 5 71 10 3 6
23 10 43 10 20 0 50 7 66 15 15 8 46 15 67 15 21 0 40 4 43 9 3 5 20 11 38 14
64 10 113 34 116 57 2 13 -2 27 -10 31 -9 6 -4 9 15 9 49 0 33 -35 -59 -125
-47 -47 -89 -85 -94 -85 -5 0 -24 -13 -42 -30 -18 -16 -40 -30 -50 -30 -10 0
-18 -4 -18 -10 0 -5 -9 -10 -20 -10 -11 0 -23 -7 -26 -15 -4 -9 -19 -15 -40
-15 -19 0 -34 -4 -34 -9 0 -5 -23 -11 -50 -15 -28 -4 -50 -11 -50 -16 0 -6
-25 -10 -55 -10 -35 0 -68 -7 -91 -19 -20 -11 -41 -18 -48 -15 -17 6 -83 -20
-111 -44 -14 -12 -30 -22 -35 -22 -6 0 -10 -11 -10 -24 0 -13 -6 -26 -12 -28
-9 -3 -13 -29 -13 -83 0 -54 4 -80 13 -82 6 -3 12 -14 12 -25 0 -21 22 -48 39
-48 6 0 11 -5 11 -11 0 -14 25 -39 39 -39 6 0 11 -4 11 -10 0 -5 -4 -10 -9
-10 -5 0 -12 -8 -14 -17 -4 -14 -5 -12 -6 5 -1 26 -38 31 -43 6 -2 -11 -22 2
-71 48 -38 35 -85 72 -105 82 -20 10 -45 22 -54 27 -45 23 -170 -10 -185 -48
-3 -7 -9 -13 -14 -13 -12 0 -27 -12 -80 -62 -21 -21 -43 -38 -49 -38 -5 0 -10
-4 -10 -9 0 -12 -46 -25 -92 -25 -43 -1 -47 4 -18 22 23 14 62 90 50 97 -5 3
-36 -12 -68 -32 -48 -30 -64 -47 -77 -81 -10 -24 -15 -46 -11 -49 3 -3 33 -8
67 -10 69 -6 105 -30 94 -64 -4 -11 -2 -25 3 -32 5 -7 12 -22 15 -34 5 -23 5
-23 -119 -23 l-124 0 0 80 c0 97 -12 103 -73 34 -32 -36 -42 -56 -44 -88 -2
-28 2 -45 12 -52 14 -10 14 -13 0 -24 -23 -19 -18 -71 9 -98 23 -21 31 -22
196 -22 l172 0 40 40 c31 30 49 40 74 40 19 0 34 6 38 15 3 8 17 15 31 15 14
0 25 5 25 10 0 6 37 10 90 10 53 0 90 -4 90 -10 0 -5 22 -10 49 -10 31 0 53
-5 61 -15 7 -8 21 -15 30 -15 10 0 27 -10 37 -23 44 -54 60 -58 246 -55 l172
3 3 29 c2 16 10 40 19 52 15 23 10 64 -8 64 -5 0 -9 9 -9 20 0 11 5 20 10 20
19 0 10 33 -15 56 -16 15 -25 34 -25 54 0 17 -6 33 -14 36 -21 8 -56 88 -49
113 4 16 1 21 -16 21 -11 0 -21 -4 -21 -9 0 -5 -20 -12 -44 -15 -54 -8 -100 9
-93 36 6 22 3 22 -28 2 -22 -14 -25 -14 -44 5 -17 17 -21 34 -21 87 0 65 1 66
45 110 38 36 52 44 84 44 21 0 59 11 85 25 37 20 62 25 117 25 53 0 71 4 75
15 4 10 20 15 44 15 24 0 40 5 44 15 3 9 18 15 40 15 19 0 38 5 41 10 3 6 14
10 24 10 10 0 24 7 31 15 7 8 20 15 29 15 10 0 28 11 41 25 13 14 30 25 37 25
8 0 70 55 139 122 113 111 124 125 124 157 0 65 19 62 -391 62 -316 -1 -378 1
-394 14 -11 8 -35 15 -52 15 -31 0 -33 2 -33 34 0 19 -5 38 -11 41 -5 4 -14
18 -19 31 l-10 24 -727 0 -728 -1 -17 -24z m152 -54 c0 -5 -7 -14 -15 -21 -13
-10 -15 -9 -15 9 0 12 6 21 15 21 8 0 15 -4 15 -9z m982 -914 c21 -7 46 -23
56 -35 11 -12 23 -22 26 -22 4 0 14 -6 21 -14 12 -12 11 -16 -8 -30 -19 -13
-20 -17 -7 -25 12 -9 11 -11 -7 -11 -12 0 -25 -4 -28 -10 -4 -6 -57 -10 -125
-10 -68 0 -121 -4 -125 -10 -3 -5 -17 -10 -30 -10 -13 0 -30 -7 -39 -15 -8 -8
-22 -15 -31 -15 -9 0 -30 -13 -47 -30 -16 -16 -34 -30 -39 -30 -16 0 -10 30
11 52 11 12 20 34 20 49 0 26 68 109 89 109 5 0 11 4 13 8 2 5 23 20 48 35 51
31 137 36 202 14z"/>
<path d="M1591 1717 c-12 -32 6 -114 26 -121 52 -20 94 65 63 125 -16 29 -78
26 -89 -4z"/>
<path d="M2210 1620 c0 -5 5 -10 10 -10 6 0 10 5 10 10 0 6 -4 10 -10 10 -5 0
-10 -4 -10 -10z"/>
<path d="M1604 1139 c-10 -17 13 -36 27 -22 12 12 4 33 -11 33 -5 0 -12 -5
-16 -11z"/>
<path d="M1470 950 c0 -5 4 -10 9 -10 6 0 13 5 16 10 3 6 -1 10 -9 10 -9 0
-16 -4 -16 -10z"/>
</g>
</svg>
